<svg width="12" height="12" viewBox="0 0 12 12" fill="none" xmlns="http://www.w3.org/2000/svg">
<path d="M5.61742 5.61765C7.16869 5.61765 8.42624 4.36009 8.42624 2.80882C8.42624 1.25755 7.16869 0 5.61742 0C4.06615 0 2.80859 1.25755 2.80859 2.80882C2.80859 4.36009 4.06615 5.61765 5.61742 5.61765Z" fill="white"/>
<path d="M11.2353 11.9375V9.12865C11.2353 8.70732 11.0246 8.286 10.6735 8.00512C9.9011 7.37313 8.91801 6.95181 7.93493 6.67093C7.23272 6.46027 6.46029 6.31982 5.61765 6.31982C4.84522 6.31982 4.07279 6.46027 3.30037 6.67093C2.31728 6.95181 1.33419 7.44335 0.561765 8.00512C0.210662 8.286 0 8.70732 0 9.12865V11.9375H11.2353Z" fill="white"/>
</svg>
